<?xml version="1.0" encoding="utf-8"?>
<!-- Generator: Adobe Illustrator 28.1.0, SVG Export Plug-In . SVG Version: 6.00 Build 0)  -->
<svg version="1.1" id="圖層_1" xmlns="http://www.w3.org/2000/svg" xmlns:xlink="http://www.w3.org/1999/xlink" x="0px" y="0px"
	 viewBox="0 0 476.72 112.01" style="enable-background:new 0 0 476.72 112.01;" xml:space="preserve">
<style type="text/css">
	.st0{fill:#FFFFFF;}
</style>
<g>
	<g>
		<path class="st0" d="M186.17,16.3c0.4,0.17,0.96,0.24,1.71,0.19c2.44-0.17,4.86-0.3,7.31-0.4c0.24-0.01,0.5-0.02,0.72,0.09
			c0.31,0.15,0.48,0.49,0.63,0.8c0.4,0.87,0.8,1.73,1.2,2.6c0.2,0.43,0.39,0.94,0.15,1.35c-0.18,0.3-0.54,0.43-0.88,0.5
			c-3.17,0.68-6.58,0.15-9.81,0.56c-0.67,0.08-1.4,0.26-1.79,0.81c-0.22,0.31-0.3,0.7-0.37,1.07c-0.3,1.55-0.92,3.96-0.31,5.49
			c0.53,1.35,2.01,1.05,3.49,1.01c1.77-0.04,3.81-0.14,5.52-0.61c1.76-0.49,3.07-1.46,5-0.86c2.14,0.67,3.54,2.67,4.78,4.54
			c0.15,0.22,0.3,0.51,0.17,0.74c-0.06,0.11-0.17,0.18-0.28,0.24c-2.23,1.26-4.67,1.09-7.1,0.92c-3.04-0.22-6.18,0.04-9.22,0.27
			c-0.44,0.03-0.89,0.07-1.3,0.23c-2.61,1.02-2.46,4.21-3.4,6.33c-0.25,0.56-3.28,5.32-2.93,5.6c0.59,0.49,7.16-0.45,7.66-1.25
			c0.97-1.54-0.14-3.44,0.88-5.15c0.09-0.14,0.18-0.29,0.32-0.38c0.36-0.22,0.8,0.07,1.19,0.25c0.92,0.42,2.03,0.16,2.96,0.55
			c1.05,0.44,2.18,1.56,3.01,2.32c0.8,0.72,1.61,1.46,2.15,2.4c0.51,0.89,0.74,1.91,0.89,2.93c0.32,2.09,0.56,4.41-0.18,6.45
			c-1.13,3.15-4.43,2.39-6.67,0.5c-1.55-1.3-0.06-2.68-1.09-3.81c-0.21-0.23-0.54-0.3-0.85-0.35c-6.95-1.16-13.38,1.28-19.42,4.53
			c-0.29,0.15-0.6,0.32-0.92,0.27c-0.27-0.04-0.49-0.22-0.69-0.4c-1.55-1.37-2.92-2.94-4.06-4.66c3.04-1.82,6.19-3.55,8.51-6.29
			c1.02-1.2,1.84-2.56,2.52-3.98c0.34-0.71,1.05-3.97,1.61-4.27c-3.31,1.82-8.08,1.13-11.75,1.97c-0.25,0.06-0.53,0.12-0.77,0.03
			c-0.22-0.07-0.38-0.24-0.54-0.41c-1.11-1.16-2.22-2.33-3.34-3.49c-0.11-0.12-0.23-0.25-0.27-0.41c-0.12-0.5,0.52-0.8,1.02-0.9
			c4.39-0.89,8.75-1.75,13.19-2.32c1.47-0.19,2.92-0.48,3.64-1.89c0.43-0.84,1.48-5.65,0.56-6.37c-0.17-0.13-0.41-0.13-0.62-0.12
			c-2.34,0.09-4.63,0.45-6.92,0.92c-1.65,0.34-3.02,0.84-4.14-0.75c-0.53-0.76-1.2-1.42-1.97-1.94c-0.27-0.18-0.55-0.35-0.74-0.62
			s-0.23-0.66-0.02-0.9c0.18-0.19,0.46-0.23,0.72-0.26c3.46-0.34,6.71-1.14,10.08-1.85c1.11-0.23,2.42-0.65,2.71-1.75
			c0.8-3.13,0.56-7.43,2.84-9.98c0.15-0.17,0.33-0.33,0.56-0.35c0.22-0.02,0.43,0.1,0.62,0.21c0.67,0.41,1.35,0.82,2.02,1.22
			C187.57,9.51,183.43,15.15,186.17,16.3z"/>
		<path class="st0" d="M307.43,1.54c0.49,0.45,0.9,0.96,1.09,1.59c0.16,0.53,0.14,1.09,0.13,1.64c-0.02,0.78-0.04,1.56-0.07,2.34
			c-0.04,1.41,3.67,0.05,4.7-0.16c1.41-0.28,2.82-0.57,4.23-0.86c0.32-0.07,0.66-0.13,0.98-0.06c0.69,0.15,1.11,0.85,1.41,1.49
			c0.46,0.98,0.86,1.99,1.19,3.02c-2.32,0.66-4.62,0.24-6.94,0.72c-0.42,0.09-4.8,0.71-4.88,1.04c-0.22,0.91,0.32,1.49,0.52,2.35
			c2.79-0.25,5.58-0.51,8.37-0.76c0.21-0.02,0.44-0.03,0.59,0.1c0.12,0.1,0.17,0.27,0.2,0.42c0.12,0.57,0.14,1.15,0.15,1.73
			c0.05,1.7,0.1,3.4,0.15,5.1c0.02,0.58,0.03,1.17-0.14,1.72c-0.13,0.42-0.38,0.83-0.78,1.01c-0.3,0.14-0.65,0.13-0.99,0.12
			c-1.76-0.06-5.63-0.97-7.07,0.34c-0.54,0.49-0.86,2-0.41,2.61c1.21,1.61,6.83-0.13,8.42-0.38c0.09-0.01,0.19-0.03,0.28,0
			c0.11,0.04,0.19,0.15,0.25,0.26c0.5,0.87,0.48,3.32,1.42,3.27c2.97-0.15,5.92-0.53,8.83-1.13c0.32-0.07,0.67-0.14,0.98-0.02
			c0.35,0.13,0.58,0.48,0.76,0.81c0.6,1.05,1.09,2.16,1.46,3.31c0.15,0.47,0.25,1.06-0.13,1.38c-0.23,0.19-0.55,0.2-0.85,0.2
			c-3.56,0-6.82-0.01-10.31,0.49c-0.22,0.03-0.46,0.08-0.58,0.26c-0.08,0.13-0.09,0.29-0.08,0.44c0.02,1.87,0.88,5.38-1.81,5.7
			c-2.07,0.24-5.45-0.59-6.91,1.45c-0.13,0.18-0.17,0.42-0.19,0.65c-0.28,2.56-0.09,5.15-0.17,7.72c-0.08,2.57-0.46,5.22-1.77,7.44
			c-0.23,0.38-0.51,0.78-0.93,0.92c-0.58,0.19-1.2-0.16-1.7-0.51c-0.7-0.5-1.36-1.04-1.99-1.62c-0.26-0.24-0.52-0.5-0.59-0.84
			c-0.07-0.34,0.06-0.69,0.18-1.01c1.41-3.81,1.89-7.96,1.4-11.99c-2.13-0.16-3.58,1.02-5.57,1.45c-0.32,0.07-0.64,0.13-0.96,0.05
			c-0.48-0.12-0.8-0.56-1.09-0.97c-0.52-0.75-1.04-1.49-1.57-2.24c-0.09-0.13-0.19-0.29-0.14-0.45c0.04-0.12,0.17-0.19,0.29-0.25
			c0.85-0.4,1.78-0.61,2.7-0.81c1.96-0.43,3.91-0.86,5.87-1.28c0.17-0.04,0.36-0.09,0.44-0.24c0.05-0.1,0.05-0.21,0.05-0.32
			c-0.01-0.37-0.02-0.75-0.03-1.12c-1.96,0.14-4.11,0.06-5.98,0.64c-1.57,0.49-3.06,1.3-4.7,1.68c-0.4,0.1-0.82,0.19-1.23,0.13
			c-0.96-0.13-1.6-1.03-2.12-1.85c-0.43-0.67-0.86-1.35-1.29-2.02c0.75-0.38,1.61-0.41,2.45-0.44c4.41-0.18,8.81-0.72,13.13-1.63
			c-0.09-0.75-0.28-1.48-0.55-2.18c-2.21,0.02-4.42,1.47-6.68,1.77c-0.2,0.03-0.41,0.05-0.58-0.05c-0.13-0.07-0.22-0.2-0.3-0.33
			c-0.45-0.68-0.9-1.36-1.35-2.05c-0.06-0.09-0.13-0.19-0.15-0.3c-0.1-0.5,0.59-0.72,1.1-0.75c2.63-0.14,5.23-0.74,7.65-1.75
			c1.26-0.53,0.47-1.96,0.46-3.04c-1.99-0.18-3.83,0.28-5.8,0.69c-0.38,0.08-0.81,0.15-1.12-0.09c-0.35-0.28-0.33-0.81-0.3-1.27
			c0.17-2.19-0.11-4.42-0.84-6.49c-0.14-0.41-0.3-0.88-0.08-1.25c0.23-0.39,0.75-0.47,1.2-0.51c2.27-0.2,4.52-0.45,6.79-0.67
			c0.03-1.02-0.03-2.04-0.18-3.06c0.09,0.63-7.43,1.71-8.18,1.8c-1.03,0.11-1.92-0.63-2.69-1.33c-0.43-0.39-0.85-0.78-1.28-1.17
			c-0.23-0.21-0.48-0.52-0.32-0.79c0.07-0.12,0.2-0.19,0.32-0.25c2.9-1.39,6.49-1.17,9.61-1.94c2.28-0.56,1.8-1.74,1.72-3.6
			c-0.06-1.38,0.19-2.88,0.3-4.28c0.03-0.39,0.13-0.86,0.5-0.97c0.27-0.08,0.54,0.09,0.77,0.25C306.6,0.87,307.04,1.18,307.43,1.54z
			 M313.5,19.62c0.37,0.01,0.75,0.03,1.12,0.05c0.23,0.01,0.48,0.02,0.65-0.13c0.23-0.2,0.18-0.56,0.12-0.86
			c-0.07-0.34-0.15-0.68-0.29-0.99c-0.06-0.13-0.15-0.27-0.29-0.33c-0.08-0.03-0.16-0.03-0.24-0.03c-1.34,0-2.66,0.12-4,0.11
			c-0.14,0-0.29,0.01-0.39,0.1c-0.13,0.14-0.07,0.37-0.01,0.55c0.18,0.52,0.28,1.07,0.3,1.61C310.47,19.76,313.27,19.61,313.5,19.62
			z M305.73,19.85c-0.05-0.24-0.11-0.49-0.16-0.73c-0.03-0.12-0.06-0.25-0.16-0.32c-0.08-0.06-0.19-0.06-0.29-0.06
			c-1.2,0.04-2.3,0.48-3.48,0.53c-0.15,0.01-0.35,0.05-0.36,0.21c0,0.05,0.01,0.09,0.03,0.13c0.14,0.41,0.18,0.8,0.24,1.22
			c0.12,0.76,0.53,0.59,1.16,0.52c0.81-0.09,1.66-0.18,2.45-0.37C305.91,20.81,305.89,20.59,305.73,19.85z M314.37,31.6
			c-0.06-0.23-0.12-0.46-0.2-0.69c-0.02-0.06-0.05-0.13-0.1-0.17c-0.06-0.05-0.15-0.05-0.23-0.04c-1.2,0.06-2.4,0.2-3.58,0.42
			c0.04,0.38-0.03,0.89,0.12,1.25c0.2,0.5,0.33,0.38,0.89,0.33c0.91-0.08,1.83-0.16,2.74-0.25c0.18-0.02,0.4-0.06,0.45-0.24
			c0.02-0.06,0.01-0.13-0.01-0.2C314.43,31.88,314.4,31.74,314.37,31.6z M314.97,36c-0.07-0.02-0.21-0.02-0.56-0.13
			c-1.08-0.32-3.39,0.53-4.5,0.75c0.06,0.68,0.12,1.36,0.18,2.04c-0.02-0.26,4.57-0.74,5.01-0.79
			C315.13,37.56,315.43,36.15,314.97,36z"/>
		<path class="st0" d="M106.6,21.77c0,0-0.2,4.55-0.2,4.59c0.04-0.82,13.56-1.54,14.78-1.65c0.58-0.05,1.17-0.11,1.73,0.06
			c0.71,0.21,1.26,0.75,1.78,1.27c0.95,0.94,1.96,1.99,2.11,3.32c0.09,0.74-0.11,1.48-0.3,2.2c-0.41,1.53-0.81,3.05-1.22,4.58
			c-0.2,0.77-0.51,1.65-1.26,1.91c-0.88,0.3-1.75-0.43-2.33-1.16c-0.65-0.82-1.29-1.54-2.36-1.69c0.24-1,0.45-1.98,0.28-3.03
			c-0.08-0.51-0.28-1.07-0.74-1.31c-0.29-0.15-0.64-0.15-0.97-0.14c-2.73,0.08-5.83-0.11-8.5,0.48c-2.15,0.47-4.19,1.08-6.42,1.39
			c-3.18,0-6.17,0.65-9.34,1.04c-0.56,0.07-1.16,0.15-1.6,0.51c-0.3,0.24-0.5,0.58-0.7,0.91c-0.59,1-1.17,1.99-1.76,2.99
			c-0.28,0.47-0.69,1.01-1.23,0.93c-0.31-0.05-0.55-0.3-0.76-0.53c-0.95-1.07-1.91-2.14-2.86-3.21c-0.16-0.18-0.32-0.37-0.36-0.61
			c-0.04-0.23,0.06-0.46,0.15-0.67c0.55-1.26,1.1-2.53,1.64-3.79c0.36-0.82,0.71-1.65,1.19-2.41c0.23-0.37,0.5-0.73,0.89-0.91
			c0.32-0.14,0.68-0.14,1.03-0.14c4.14,0.02,8.25,0.53,12.39,0.54c3.24,0.01,0.75-3.11,2.28-4.93c-2.01,0.14-8.2,1.65-9.24-0.2
			c-0.68-1.21-0.52-3.4-0.65-4.74c-0.46-3.67-0.73-7.5-0.58-11.18c0.02-0.43,0.08-0.95,0.46-1.16c0.17-0.1,0.38-0.11,0.58-0.12
			c5.41-0.26,10.55-0.94,15.89-1.83c0.82-0.14,1.66-0.27,2.49-0.14c1.2,0.2,2.22,0.96,3.18,1.7c0.84,0.64,1.7,1.31,2.19,2.24
			c0.78,1.5,0.08,4.28-0.12,5.9c-0.33,2.71-0.84,5.42-0.66,8.17C116.07,23.09,109.04,21.6,106.6,21.77z M113.12,8.28
			c-1.92,0.58-13.96,0.84-14.5,1.32c-0.19,0.17,0,2.56-0.14,3.28c4.82-0.46,9.61-0.36,14.45-0.01L113.12,8.28z M113.47,14.86
			c-2.3,1.22-14.32,0.58-15.11,1.33c-0.3,0.29-0.01,2.48-0.18,3.24c5.2-0.99,10.51-2.18,15.84-1.92L113.47,14.86z"/>
		<path class="st0" d="M45.42,14.55c1.45-0.4,5.11,0.8,5.66,2.37c0.73,2.08-2.77,4.86-1.82,6.36c0.34,0.53,1.02,0.8,1.66,1.04
			c6.19,2.25,12.93,3.6,18.43,6.92c0.43,0.26,0.9,0.69,0.66,1.09c-0.11,0.19-0.36,0.29-0.59,0.38c-2.32,0.9-4.79,1.83-7.31,1.55
			c-2.05-0.23-3.86-1.22-5.63-2.14c-3.65-1.91-7.44-3.62-11.33-5.12c-3.81,3.14-8.1,5.48-12.79,7.54c-0.6,0.26-1.21,0.53-1.86,0.65
			c-2.42,0.45-4.67-1.09-6.51-2.53c4.25-1.9,8.5-3.81,12.76-5.71c0.97-0.43,1.82-0.84,2.48-1.57c-0.86-0.36-5.32-4.18-2.48-4.56
			c4.97-0.67,6.09,3.17,8.98-2.41c-5.06-4.43-12.34,6.02-18.04,1.76c-0.16-0.12-0.32-0.28-0.28-0.47c0.03-0.16,0.21-0.26,0.36-0.32
			c2.83-1.29,5.58-2.77,8.23-4.41c1.57-0.97,2.7-2.54,4.23-3.54c0.99-0.65,2.87-2.25,4.1-2.23c1.16,0.01,2.04,1.21,2.1,2.38
			C46.46,12.62,46,13.68,45.42,14.55z"/>
		<path class="st0" d="M15.35,29.61c1.8-0.35,3.14-0.97,4.85,0.06c4.08,2.46-3.85,4.02-4.54,5.03c-1.49,2.18,0.02,7.04,0.26,9.42
			c1.93-0.54,3.88-0.97,5.86-1.29c0.29-0.05,0.59-0.09,0.87,0c0.36,0.12,0.6,0.45,0.81,0.77c0.91,1.41,1.56,2.99,1.91,4.64
			c-1.92,0.76-3.96,1.16-5.99,1.57c-2.87,0.58-5.75,1.15-8.62,1.73c-1.98,0.4-4.9,1.95-6.65,0.33c-0.42-0.39-0.71-0.89-1.03-1.36
			c-0.65-0.97-1.45-1.86-2.34-2.61c-0.18-0.15-0.37-0.3-0.44-0.52c-0.19-0.58,0.54-1.02,1.13-1.17c2.9-0.69,6-0.09,8.9-0.78
			c0.26-0.06,0.54-0.15,0.7-0.36c0.16-0.2,0.18-0.48,0.19-0.74c0.03-1.8-0.12-3.37,0.06-5.2c0.05-0.5,0.58-2.9,0.12-3.29
			c-0.3-0.25-7.97,0.18-4.64-3.72c1.41-1.66,4.6-0.56,4.7-3.34c0.06-1.61-0.33-4.4-2.62-3.88c-0.53,0.12-1.09,0.3-1.59,0.09
			c-0.75-0.32-0.9-1.3-1.37-1.96c-0.21-0.3-0.52-0.6-0.49-0.97c0.12-1.48,7.9-2.26,9.17-2.45c2.36-0.34,10.99-2.06,7.05,2.12
			C18.41,25.12,12.93,22.8,15.35,29.61z"/>
		<path class="st0" d="M104.52,35.21c0.19,0.16,0.37,0.33,0.49,0.54c0.46,0.84-0.17,1.85-0.77,2.6c0.5-0.62,3.45-0.26,4.21-0.31
			c2.04-0.15,4.09-0.57,6.12-0.85c0.5-0.07,1.02-0.13,1.48,0.08c0.39,0.18,0.65,0.54,0.91,0.89c0.45,0.62,0.89,1.23,1.34,1.85
			c0.47,0.65,0.94,1.61,0.37,2.19c-0.33,0.34-0.86,0.35-1.34,0.35c-1.91-0.01-3.81,0.12-5.7,0.39c-3.04,0.44-3.57,4.75-1.1,6.3
			c2.05,1.29,4.96,0.89,6.66,2.84c0.39,0.45,0.59,1.02,0.75,1.59c0.36,1.25,0.55,2.55,0.59,3.86c0.01,0.43-10.79-2.5-11.95-2.01
			c-1.26,0-2.57,2.1-3.29,2.91c-1.62,1.84-4.21,4.26-6.79,3.23c-1.07-0.43-1.97-1.18-2.9-1.86c-1.31-0.96-2.71-1.8-4.17-2.51
			c0.85-0.97,2.28-1.13,3.55-1.32c1.98-0.3,3.73-1.07,5.64-1.55c0.96-0.24,2.3-0.03,3-0.87c1.65-1.97-2.17-2.69-2.98-4.02
			c-0.45-0.75-0.8-6.15,0.74-5.68c-1.71-0.52-4.74-0.65-6.05-1.97c-0.59-0.6-0.92-1.39-1.24-2.17c-0.12-0.28-0.22-0.64-0.01-0.87
			c0.14-0.15,0.36-0.17,0.56-0.18c2.27-0.13,5.23,0.41,7.35-0.46c1.7-0.7,2-2.14,2.6-3.76c0.06-0.17,0.17-0.37,0.35-0.36
			c0.08,0.01,0.16,0.06,0.22,0.11c0.37,0.29,0.75,0.57,1.12,0.86C104.37,35.09,104.45,35.15,104.52,35.21z M107.93,44.3
			c-2.84,0.6-5.88-1.26-6.28,2.47C105.51,47.57,106.2,47.93,107.93,44.3z"/>
		<g>
			<path class="st0" d="M453.96,18.8c2.11-1.06,4.8-0.37,7.01-0.27c3.28,0.15,6.74-0.5,10.01-0.79c0.5-0.04,1.01-0.09,1.5,0.05
				c0.57,0.16,1.03,0.55,1.47,0.94c0.97,0.88,1.87,1.83,2.68,2.85c0.28,0.35,0.55,0.88,0.23,1.2c-0.16,0.15-0.39,0.18-0.61,0.21
				c-2.41,0.25-4.82,0.5-7.23,0.75c-0.34,0.04-0.73,0.1-0.93,0.37c-0.15,0.22-0.13,0.51-0.11,0.78c0.75,7.65,1.3,15.38,0.5,23.04
				c-0.3,2.82-0.39,8.72-2.29,10.98c-1.29,1.53-2.24,0.42-3.45-0.77c-0.45-0.44-4.07-3.72-3.89-4.18
				c2.27-5.61,3.58-11.59,3.88-17.61c0.14-2.78,1.34-11.71-2.81-11.87c-1.3-0.05-2.61,0.12-3.92,0.11c0.47,2.3-0.27,4.48-0.4,6.75
				c0,4.6-2.12,9.4-3.55,13.72c-0.12,0.36-0.25,0.74-0.51,1.02c-0.24,0.25-0.56,0.39-0.89,0.51c-2.16,0.77-4.55,0.41-6.82,0.04
				c1.09-1.47,1.32-2.94,1.93-4.56c0.53-1.42,1.51-2.72,2.14-4.14c1.42-3.21,2.2-6.69,2.5-10.17c0.12-1.38,0.15-2.77,0.11-4.15
				c-0.03-0.8-0.55-2.62-0.26-3.31c1.64-3.93,4.22-8.17,4.95-12.36c0.09-0.54,0.29-1.21,0.84-1.27c0.19-0.02,0.37,0.04,0.55,0.09
				c0.66,0.16,1.35,0.07,2.02,0.05c0.68-0.02,1.4,0.05,1.93,0.47C463.03,9.21,456.02,17.76,453.96,18.8z"/>
			<path class="st0" d="M434.37,29.76c0,0,6.82-1.66,6.82-1.66c-1.09,0.26,0.66-5.02-2.63-3.86c-0.41,0.14-0.9,0.24-1.26-0.01
				c-0.25-0.17-0.37-0.46-0.57-0.68c-0.3-0.33-0.74-0.48-1.11-0.73c-0.37-0.24-0.7-0.67-0.57-1.08c0.14-0.45,0.69-0.6,1.16-0.69
				c1.78-0.33,3.19-0.83,4.82-1.61c0.41-0.2,0.85-0.4,1.3-0.32c0.27,0.05,0.51,0.19,0.74,0.34c2.48,1.53,2.24,1.65,1.81,4.15
				c-0.44,2.51,0.18,5.08-0.42,7.63c-0.06,0.24-0.13,0.5-0.31,0.67c-0.19,0.18-0.46,0.24-0.72,0.29c-2.05,0.42-8.01,0.44-9.49,2.14
				c-0.38,0.44-1.15,4.75-1.72,6.1c-1.53,3.64-3.01,6.98-5.1,10.36c-0.22,0.36-0.46,0.73-0.84,0.93c-0.42,0.22-0.94,0.18-1.42,0.11
				c-1.85-0.24-3.68-0.61-5.47-1.11c-0.23-0.06-0.51-0.21-0.47-0.44c0.02-0.09,0.09-0.17,0.15-0.24c4.03-4.22,7.01-9.38,8.65-14.92
				c1.78-6.02,1.23-12.1,1.48-18.29c0.01-0.15,0.02-0.31,0.12-0.42c0.15-0.16,0.41-0.14,0.64-0.12c2.87,0.15,6.19-5.42,7.12-7.6
				c0.81,0.39,1.62,0.77,2.43,1.16c0.55,0.26,1.14,0.56,1.42,1.1c0.44,0.86-0.12,1.88-0.75,2.62c-1.21,1.45-2.76,2.61-4.22,3.79
				c-0.67,0.54-2.48,1.5-2.79,2.35C432.72,21.03,436.38,27.7,434.37,29.76z"/>
		</g>
		<path class="st0" d="M52.4,36.88c0.74,0.22,1.36,0.54,1.8,0.95c0.04,3.17,1.75,9.36,0.54,12.2c-0.13,0.3-0.3,0.59-0.6,0.78
			c-0.41,0.27-0.96,0.27-1.48,0.27c-3.63-0.02-7.26-0.03-10.89-0.05c-1.48-0.01-3.03,0-4.34,0.59c-3.46,1.56-1.94-2.45-1.71-4.21
			c0.29-3.24,0.55-6.46,0.83-9.7c0.02-0.29,0.07-0.62,0.35-0.79c0.34-0.2,0.79-0.04,1.17,0.11C42.84,38.87,47.37,35.36,52.4,36.88z
			 M46.76,41.88c-0.55-0.35-1.41-0.52-2.77-0.5c-1.44,0.02-2.35-0.32-3.18,0.75c-0.34,0.44,0.25,3.66,0.67,4.03
			c1.4,1.22,4.61,0.32,6.42-0.07C47.71,44,47.86,42.58,46.76,41.88z"/>
		<g>
			<path class="st0" d="M255.3,9.78c1.43,0.1,2.87-0.07,4.24-0.49c0.27-0.08,0.54-0.18,0.82-0.12c0.26,0.05,0.47,0.23,0.67,0.4
				c0.52,0.44,1.03,0.88,1.55,1.32c0.17,0.15,0.35,0.3,0.44,0.51c0.08,0.18,0.08,0.38,0.08,0.58c-0.02,1.41-0.82,2.81,0.51,3.22
				c1.02,0.31,2.98-0.39,4.04-0.56c1.72-0.28,3.44-0.59,5.15-0.95c1,0.82,1.95,1.69,2.86,2.6c0.59,0.59,1.17,1.22,1.49,2
				c0.08,0.19,0.14,0.39,0.1,0.58c-0.1,0.56-0.82,0.72-1.39,0.75c-3.07,0.12-13.66-1.86-12.33,3.6c0.15,0.61,0.4,1.21,0.36,1.84
				c-0.18,2.92-5.51,3.08-7.5,2.7c0.02,0-0.02,2.52-0.01,2.75c0.01,0.56,7.39-0.61,7.92-0.45c0.92,0.28,2.03,1.67,2.48,2.49
				c0.96,1.73-0.01,1.75-1.8,1.91c-1.7,0.15-6.86,0.14-7.78,1.68c-0.29,0.49-0.27,1.1-0.14,1.65c0.14,0.58,0.42,1.15,0.89,1.52
				c1.54,1.19,4.61,0.27,6.38,0.09c1.89-0.19,5.73-1.21,7.41-0.25c0.71,0.4,1.11,1.17,1.48,1.9c0.43,0.85,0.87,1.71,1.3,2.56
				c0.01,0.35-0.25,0.66-0.57,0.81s-0.68,0.16-1.03,0.16c-2.68,0.06-5.49,0.37-8.16,0.21c-2.46-0.15-5.1,0.47-7.43,1.23
				c-1.09,0.35,0.38,4.73,0.53,5.43c0.56,2.72-0.33,5.79-1.62,8.21c-0.21,0.39-0.52,0.83-0.96,0.83c-0.23,0-0.43-0.11-0.63-0.22
				c-1.37-0.77-2.79-1.59-3.64-2.9c-0.27-0.41-0.47-0.88-0.5-1.36c-0.05-0.99,0.64-1.84,1.12-2.7c1.36-2.41,0.56-4.76,0.11-7.33
				c-2.92-0.07-5.69,0.6-8.61,1.11c-0.51,0.09-1.1,0.16-1.51-0.16c-0.3-0.24-0.42-0.62-0.59-0.97c-0.66-1.36-2.1-2.17-2.91-3.44
				c-0.08-0.13-0.16-0.27-0.12-0.42c0.05-0.23,0.33-0.31,0.56-0.35c4.58-0.74,9.53,0.11,13.71-1.9c0.16-0.08,0.33-0.17,0.38-0.33
				c0.06-0.17-0.02-0.35-0.07-0.52c-0.09-0.37-0.01-0.76-0.07-1.14c-0.12-0.82-0.87-1.43-1.67-1.65c-1.45-0.4-3.23,0.01-4.58,0.57
				c-0.21,0.09-0.44,0.19-0.67,0.14c-0.26-0.06-0.44-0.29-0.59-0.51c-0.53-0.76-1.05-1.52-1.58-2.28c-0.09-0.14-0.19-0.28-0.19-0.45
				c0.01-0.36,0.46-0.5,0.81-0.55c1.92-0.26,7.11,0.04,8.4-1.58c0.59-0.73,0.01-2.88,0.07-3.79c-1.48-0.01-3.1,0.23-4.61,0.41
				c-0.22,0.03-0.45,0.05-0.64-0.06c-0.18-0.1-0.29-0.29-0.4-0.47c-0.53-0.94-1.05-1.88-1.58-2.82c1.8-0.54,3.66-0.89,5.54-1.06
				c0.5-0.04,1.04-0.09,1.45-0.38c0.41-0.29,0.63-0.93,0.3-1.31c-0.66-0.75-5.71,0.26-6.77,0.48c-0.64,0.14-1.34,0.27-1.94-0.01
				c-0.92-0.42-1.2-1.58-1.9-2.31c-0.46-0.49-1.19-1-0.97-1.63c0.18-0.51,0.85-0.62,1.39-0.63c2.43-0.06,8.46,1.22,10.25-0.72
				c0.16-0.17-0.24-1.35-0.32-1.54c-0.36-0.97-0.14-1.47-1.5-1.15c-0.55,0.13-1.1,0.42-1.66,0.33c-0.64-0.11-1.08-0.69-1.46-1.23
				c-0.28-0.4-0.56-0.81-0.84-1.21c-0.18-0.26-0.36-0.55-0.29-0.86c1.43-0.1,2.85-0.37,4.22-0.8c2.19-0.7,0.89-6.25,1.14-7.94
				c0.03-0.18,0.08-0.4,0.26-0.46c0.13-0.05,0.28,0.02,0.41,0.08c0.55,0.28,1.1,0.56,1.66,0.84c0.25,0.13,0.51,0.26,0.68,0.49
				c0.33,0.44,0.23,1.05,0.14,1.6C254.87,6.84,254.95,8.34,255.3,9.78z M258.74,13.86c-1.26-0.1-2.59,0.17-3.84,0.24
				c0.25-0.01,0.35,2.45,0.58,2.65c0.77,0.68,3.08,0.25,3.9-0.06c0.01-0.94-0.1-1.88-0.33-2.8
				C258.95,13.88,258.85,13.87,258.74,13.86z M259.63,21.12c-1.11,0.13-2.23,0.34-3.3,0.58c-0.48,0.11-0.1,1.74-0.1,2.14
				c0-0.08,2.7-0.2,2.9-0.22c0.42-0.04,1.26,0.1,1.56-0.23c0.18-0.2,0.01-2.36,0.04-2.36C260.37,21.05,260,21.08,259.63,21.12z"/>
			<path class="st0" d="M220.89,34.61c-0.69-0.19-1.33-0.5-1.81-0.86c-0.13-0.09-0.25-0.2-0.32-0.34c-0.28-0.53,0.31-1.09,0.82-1.41
				c6-3.75,9.64-8.88,13.63-14.54c0.11-0.16,0.27-0.34,0.46-0.32c0.14,0.02,0.24,0.13,0.33,0.25c0.62,0.76,1.24,1.53,1.61,2.44
				s0.45,1.98-0.02,2.84c-0.18,0.32-0.42,0.6-0.67,0.88c-1.07,1.21-3.33,2.89-3.72,4.5c-0.52,2.18,1.48,5.1,1.75,7.31
				c0.46,3.69,0.56,7.56,0.31,11.27c-0.14,2.02-1.06,12.05-3.92,11.93c-1.74-0.08-3.51-4.48-3.7-5.92c-0.3-2.26,0.57-4.48,1.2-6.67
				c0.84-2.93,1.1-5.76,1.07-8.76c0-0.41,0.2-5.96-0.12-5.74C225.53,33.05,223.93,35.46,220.89,34.61z"/>
			<path class="st0" d="M231.39,6.91c0.21-0.09,0.41-0.08,0.6,0.07c0.95,0.77,1.96,1.65,2.13,2.86c0.1,0.74-0.13,1.47-0.38,2.17
				c-1.54,4.32-5.15,8.22-9.14,10.38c-0.5,0.27-1.21,0.49-1.54,0.03c-0.2-0.29-0.11-0.68-0.13-1.03c-0.02-0.41-0.19-0.81-0.21-1.22
				c-0.08-1.37,1.8-3.14,2.48-4.24c0.99-1.62,2.27-3.05,3.34-4.62C229.07,10.52,230.32,7.38,231.39,6.91z"/>
		</g>
		<g>
			<path class="st0" d="M388.03,11.51c-0.06,0.07-0.12,0.13-0.18,0.2c1.02-1.05,5.17-1.01,6.58-1.25c1.76-0.3,3.55-0.56,5.29-0.94
				c0.26-0.06,0.55-0.11,0.79,0.02c0.16,0.09,0.27,0.26,0.37,0.41c0.51,0.82,1.03,1.64,1.54,2.47c0.22,0.36,0.46,0.76,0.42,1.18
				c-0.07,0.74-0.9,1.13-1.61,1.37c-0.77,0.26-1.55,0.53-2.35,0.64c-0.93,0.13-1.87,0.04-2.79,0.18c-2.98,0.44-2.7,3.66-4.02,5.76
				c-0.05,0.21,6.24,2.36,6.67,2.52c4,1.46,7.44,2.54,11.68,3.12c0.33,0.05,0.7,0.11,0.91,0.37c0.43,0.53-0.11,1.28-0.61,1.73
				c-0.93,0.84-1.88,1.69-2.99,2.26c-3.51,1.79-9.53-1.31-12.98-2.46c-1.85-0.62-4.46-2.08-6.46-1.96
				c-2.29,0.13-5.52,2.53-7.65,3.48c-0.64,0.29-1.3,0.58-2,0.61c-1.55,0.06-2.83-1.15-3.9-2.27c0.72-0.59,1.7-0.71,2.6-0.94
				c1.23-0.32,6.03-2.43,6.39-3.86c0.25-1-1.37-2.38-1.62-3.48c-0.21-0.96,0.06-2.02,0.09-2.96c-1,0.21-1.74,1.18-2.95,0.51
				c-0.78-0.44-1.27-1.25-1.73-2.02c-0.06-0.1-0.12-0.22-0.09-0.33c0.03-0.11,0.14-0.17,0.23-0.23c2.13-1.2,3.53-2.23,5.01-4.16
				c0.43-0.56,4.44-5.57,3.58-6.2c0.92,0.69,1.85,1.37,2.77,2.06c0.15,0.11,0.31,0.23,0.39,0.4c0.09,0.18,0.08,0.39,0.05,0.59
				C389.32,9.49,388.81,10.62,388.03,11.51z M390,16.17c-0.12-0.2-3.95-2.11-4.18-2.14c-0.23-0.03-2.41,2.3-2.16,2.72
				c1.42-0.2,4.3,3.2,5.04,2.88C388.86,19.56,390.21,16.54,390,16.17z"/>
			<path class="st0" d="M391.93,35.61c1,1.16,3,0.1,5.53-0.08c0.37-0.03,0.79-0.04,1.07,0.21c0.22,0.2,0.3,0.5,0.43,0.77
				c0.52,1.04,1.91,1.57,2.11,2.72c0.45,2.56-0.6,6.49-1.19,8.99c-0.6,2.52-1.57,5.36-3.32,7.29c-0.57,0.63-1.54,0.74-2.34,0.49
				c-0.8-0.26-1.47-0.82-2.08-1.4c-1.42-1.36-2.66-2.9-3.68-4.57c1.94,0.29,4.54-0.81,5.3-2.74c0.16-0.41,0.51-4.38,0.59-4.35
				c-5.55-2.09-5.04,1.55-7.85,5.01c-2.22,2.7-5.04,5.01-7.86,7.04c-0.44,0.32-0.91,0.64-1.45,0.7c-0.42,0.04-0.84-0.08-1.24-0.23
				c-1.19-0.43-2.32-1.02-3.35-1.74c-0.4-0.28-0.83-0.7-0.71-1.17c0.09-0.37,0.49-0.58,0.84-0.73c1.88-0.84,3.76-1.72,5.4-2.96
				c1.5-1.13,2.69-2.73,3.81-4.21c0.53-0.7,3.78-3.87,0.98-3.62c-0.61,0.05-1.21,0.11-1.82,0.16c-0.41,0.04-0.86,0.06-1.2-0.17
				c-0.25-0.18-0.39-0.47-0.52-0.75c-0.48-1.05-0.96-2.1-1.44-3.16c-0.1-0.22-0.2-0.46-0.13-0.69c0.12-0.36,0.57-0.45,0.95-0.46
				c1.5-0.04,3,0.26,4.5,0.19c1.22-0.06,3.02-0.48,3.63-1.69c0.57-1.12-0.05-2.78,0.64-4.03c0.68,0.18,1.36,0.37,2.03,0.55
				c0.3,0.08,0.61,0.17,0.87,0.34c0.58,0.39,0.78,1.15,0.81,1.85C391.31,34.41,391.55,35.17,391.93,35.61z"/>
			<path class="st0" d="M366.41,31.09c-0.01-0.15-0.02-0.31-0.04-0.46c-1.3-0.11-3.28,0.85-4.7,1.04c-0.17,0.02,0.04,8.4,0.04,8.98
				c0.02,4.4,0.78,9.7-1.12,13.79c-0.31,0.67-0.78,1.38-1.5,1.53c-0.65,0.13-1.28-0.24-1.82-0.62c-1.87-1.28-3.57-2.81-5.06-4.52
				c1.29,0.34,2.68-0.44,3.43-1.55s0.99-2.47,1.16-3.8c0.58-4.6,0.86-9.27,1.25-13.89c0.01-0.12-3.45-0.01-3.78,0.05
				c-0.19,0.04-0.4,0.07-0.58,0c-0.16-0.06-0.28-0.2-0.4-0.33c-0.67-0.75-1.34-1.5-2.01-2.26c-0.07-0.07-0.14-0.16-0.12-0.26
				c0.02-0.15,0.2-0.21,0.35-0.23c3.25-0.52,6.43-1.93,9.67-2.69c2.94-0.69,5.93-1.13,8.91-1.75c0.1-0.02,0.21-0.04,0.31-0.01
				c0.14,0.04,0.22,0.17,0.3,0.29c0.58,0.91,1.15,1.82,1.73,2.72c0.24,0.38,0.49,0.78,0.52,1.22c0.03,0.45-0.16,0.88-0.34,1.29
				c-1.06,2.34-1.89,5.16-3.94,6.87c-0.14,0.12-0.3,0.24-0.49,0.26c-0.22,0.02-0.42-0.09-0.6-0.2c-0.95-0.61-1.74-1.46-2.28-2.45
				C366.04,33.33,366.46,32.2,366.41,31.09z"/>
			<path class="st0" d="M365.22,20.54c0.62,1.03,3.58,1.96,0.7,3.42c-1.89,0.95-5.87-1.71-7.42-2.62c-0.37-0.22-0.74-0.45-0.99-0.8
				c-0.77-1.08-0.07-2.7-0.71-3.87c1.31,0.07,4.57,2.29,5.61,1.61c0.64-0.42,0.49-2.68,0.62-3.37c0.54-2.8-1.34-2.04-3.83-2.14
				c-0.61-0.02-1.27-0.06-1.75-0.45c-0.27-0.21-0.45-0.51-0.62-0.8c-0.56-0.93-1.12-1.86-1.69-2.79c3.29,0.02,8.24-2.06,11.37-0.82
				C372.19,10.15,364.85,19.94,365.22,20.54z"/>
			<path class="st0" d="M344.48,44.19c-0.17-0.1-0.34-0.2-0.51-0.31c-0.38-0.23-0.82-0.6-0.68-1.02c0.08-0.23,0.3-0.37,0.51-0.49
				c3.73-2.19,6.18-5.45,9.1-8.47c0.65-0.67,1.47-1.72,2.56-1.03c4.48,2.8-3.66,13.54-7.4,13.09c-0.8-0.1-1.52-0.52-2.21-0.94
				C345.39,44.73,344.93,44.46,344.48,44.19z"/>
		</g>
		<path class="st0" d="M158.07,40.06c1.22,6.55-2.28,10.71-6.31,15.3c-0.45,0.52-0.94,1.05-1.58,1.29
			c-1.53,0.57-3.09-0.69-4.24-1.85c-1-1.01-2.07-2.24-1.85-3.64c0.16-0.98,0.92-1.73,1.64-2.41c3.38-3.17,7.94-6.35,9.95-10.65
			c0.14-0.3,0.31-0.64,0.62-0.75c0.58-0.21,1.08,0.46,1.31,1.04C157.81,38.91,157.96,39.47,158.07,40.06z"/>
		<path class="st0" d="M149.6,25.08c4.5-1.34,12.25,8.89,3.65,8.01C147.95,32.55,145.15,26.4,149.6,25.08z"/>
		<path class="st0" d="M155.05,11.43c3.89-0.33,6.5,8.48,3.5,9.45C153.54,22.5,149.23,11.93,155.05,11.43z"/>
	</g>
	<g>
		<path class="st0" d="M19.44,98.14l-0.16,6.27H1.19v-0.72h0.63c0.91,0,1.54-0.12,1.89-0.35c0.35-0.23,0.58-0.59,0.68-1.07
			c0.1-0.49,0.15-1.62,0.15-3.4V88.42c0-1.7-0.05-2.79-0.15-3.28c-0.1-0.49-0.31-0.83-0.63-1.02c-0.32-0.19-1.02-0.28-2.1-0.28H1.19
			v-0.72h10.22v0.72h-0.94c-1.05,0-1.73,0.09-2.06,0.26c-0.33,0.17-0.54,0.5-0.65,0.97c-0.11,0.47-0.16,1.59-0.16,3.36v11.15
			c0,1.54,0.04,2.5,0.13,2.89c0.08,0.39,0.31,0.69,0.68,0.9c0.37,0.22,1.17,0.32,2.39,0.32h1.62c1.31,0,2.28-0.12,2.91-0.35
			c0.64-0.23,1.24-0.73,1.81-1.51c0.57-0.77,1.09-2,1.56-3.69H19.44z"/>
		<path class="st0" d="M35.48,102.06h0.58c-0.09,1.79-0.97,2.69-2.64,2.69c-0.71,0-1.27-0.19-1.69-0.57
			c-0.41-0.38-0.68-0.94-0.81-1.68c-1.05,0.74-2,1.3-2.87,1.68c-0.86,0.38-1.64,0.57-2.32,0.57c-0.87,0-1.62-0.25-2.25-0.75
			c-0.63-0.5-0.94-1.17-0.94-1.99c0-1.08,0.53-2.02,1.58-2.83c1.05-0.81,2.5-1.59,4.36-2.36l2.43-0.99v-0.63
			c0-0.89-0.06-1.53-0.17-1.93c-0.11-0.4-0.41-0.75-0.9-1.07c-0.48-0.31-1.12-0.47-1.9-0.47c-1.57,0-2.44,0.52-2.62,1.57
			c-0.17,1.07-0.61,1.6-1.32,1.6c-0.64,0-0.96-0.3-0.96-0.91c0-0.6,0.42-1.24,1.27-1.92c0.85-0.68,2.17-1.03,3.96-1.03
			c1.33,0,2.36,0.21,3.09,0.63c0.73,0.42,1.22,0.9,1.45,1.43c0.24,0.53,0.35,1.35,0.35,2.45v5.2c0,1.21,0.06,1.99,0.19,2.34
			c0.13,0.35,0.4,0.52,0.82,0.52C34.89,103.59,35.32,103.08,35.48,102.06z M30.93,96.56l-1.71,0.69c-2.7,1.1-4.05,2.48-4.05,4.15
			c0,0.66,0.17,1.19,0.52,1.59c0.35,0.4,0.8,0.6,1.35,0.6c0.49,0,1.06-0.16,1.71-0.49c0.65-0.32,1.38-0.81,2.18-1.46V96.56z"/>
		<path class="st0" d="M53.12,104.91h-0.71l-3.83-10.21l-3.91,10.21h-0.69l-3.92-10.21c-0.45-1.16-0.79-1.86-1.01-2.09
			c-0.22-0.23-0.66-0.35-1.32-0.35v-0.72h5.87v0.72c-0.66,0-1.11,0.06-1.35,0.18c-0.24,0.12-0.36,0.33-0.36,0.62
			c0,0.21,0.2,0.82,0.61,1.84l2.61,6.89l3.99-10.25h0.61l3.86,10.25l2.83-7.3c0.3-0.77,0.46-1.24,0.46-1.4
			c0-0.51-0.53-0.79-1.59-0.83v-0.72h4.18v0.72c-0.5,0.01-0.9,0.11-1.19,0.29c-0.29,0.18-0.55,0.59-0.79,1.23l-0.35,0.91
			L53.12,104.91z"/>
		<path class="st0" d="M84.89,102.06h0.58c-0.09,1.79-0.97,2.69-2.64,2.69c-0.71,0-1.27-0.19-1.69-0.57
			c-0.41-0.38-0.68-0.94-0.81-1.68c-1.05,0.74-2,1.3-2.87,1.68c-0.86,0.38-1.64,0.57-2.32,0.57c-0.87,0-1.62-0.25-2.25-0.75
			c-0.63-0.5-0.94-1.17-0.94-1.99c0-1.08,0.53-2.02,1.58-2.83c1.05-0.81,2.5-1.59,4.36-2.36l2.43-0.99v-0.63
			c0-0.89-0.06-1.53-0.17-1.93c-0.11-0.4-0.41-0.75-0.9-1.07c-0.48-0.31-1.12-0.47-1.9-0.47c-1.57,0-2.44,0.52-2.62,1.57
			c-0.17,1.07-0.61,1.6-1.32,1.6c-0.64,0-0.96-0.3-0.96-0.91c0-0.6,0.42-1.24,1.27-1.92c0.85-0.68,2.17-1.03,3.96-1.03
			c1.33,0,2.36,0.21,3.09,0.63c0.73,0.42,1.22,0.9,1.45,1.43c0.24,0.53,0.35,1.35,0.35,2.45v5.2c0,1.21,0.06,1.99,0.19,2.34
			c0.13,0.35,0.4,0.52,0.82,0.52C84.29,103.59,84.72,103.08,84.89,102.06z M80.34,96.56l-1.71,0.69c-2.7,1.1-4.05,2.48-4.05,4.15
			c0,0.66,0.17,1.19,0.52,1.59c0.35,0.4,0.8,0.6,1.35,0.6c0.49,0,1.06-0.16,1.71-0.49c0.65-0.32,1.38-0.81,2.18-1.46V96.56z"/>
		<path class="st0" d="M91.84,91.03h0.42c0.24,0.65,0.38,1.53,0.41,2.65c0.75-0.89,1.55-1.56,2.37-1.99
			c0.83-0.44,1.69-0.66,2.59-0.66c1.03,0,1.86,0.21,2.52,0.64c0.65,0.43,1.07,0.96,1.26,1.58c0.19,0.62,0.28,1.53,0.28,2.72V100
			c0,1.49,0.03,2.39,0.08,2.72c0.05,0.32,0.22,0.57,0.5,0.73c0.28,0.16,0.79,0.24,1.53,0.24v0.72h-6.58v-0.72h0.3
			c0.75,0,1.25-0.11,1.48-0.33c0.23-0.22,0.36-0.48,0.39-0.77c0.03-0.29,0.05-1.16,0.05-2.59v-4.15c0-1.02-0.05-1.74-0.15-2.17
			c-0.1-0.43-0.37-0.82-0.8-1.15c-0.43-0.33-0.99-0.5-1.66-0.5c-0.77,0-1.49,0.23-2.19,0.68c-0.7,0.46-1.35,1.14-1.97,2.05V100
			c0,1.49,0.03,2.39,0.09,2.72c0.06,0.32,0.22,0.57,0.5,0.73c0.28,0.16,0.79,0.24,1.55,0.24v0.72h-6.5v-0.72
			c0.72,0,1.22-0.07,1.51-0.22c0.28-0.15,0.46-0.37,0.53-0.67c0.07-0.3,0.1-1.23,0.1-2.8v-3.83c0-1.5-0.03-2.41-0.09-2.72
			c-0.06-0.32-0.22-0.56-0.5-0.72c-0.28-0.16-0.79-0.24-1.55-0.24v-0.72C89.46,91.63,90.63,91.39,91.84,91.03z"/>
		<path class="st0" d="M118.18,92.92v-5.02c0-1.37-0.02-2.24-0.06-2.59c-0.04-0.36-0.19-0.63-0.45-0.82
			c-0.26-0.19-0.73-0.28-1.4-0.28h-0.33v-0.72c1.27-0.03,2.65-0.25,4.16-0.66h0.33v17.29c0,1.5,0.02,2.41,0.08,2.73
			c0.05,0.32,0.22,0.57,0.5,0.72c0.28,0.16,0.79,0.24,1.55,0.24v0.72c-1.52,0.03-2.87,0.17-4.05,0.41
			c-0.13-0.49-0.19-1.27-0.19-2.32c-0.78,0.77-1.57,1.36-2.4,1.74c-0.82,0.39-1.67,0.58-2.55,0.58c-1.66,0-3.1-0.67-4.31-2.01
			c-1.21-1.34-1.82-2.96-1.82-4.87c0-2.09,0.62-3.79,1.85-5.08c1.24-1.29,2.71-1.94,4.41-1.94c0.87,0,1.69,0.16,2.47,0.47
			C116.75,91.82,117.49,92.29,118.18,92.92z M118.18,93.83c-0.69-0.6-1.38-1.04-2.08-1.34c-0.7-0.3-1.4-0.45-2.1-0.45
			c-1.18,0-2.17,0.46-2.96,1.37c-0.79,0.91-1.19,2.4-1.19,4.46c0,2.09,0.41,3.64,1.22,4.63c0.81,0.99,1.81,1.49,3.01,1.49
			c0.8,0,1.53-0.19,2.21-0.57c0.68-0.38,1.31-0.94,1.89-1.7V93.83z"/>
		<path class="st0" d="M152.47,97.78h0.75l-0.46,6.63h-17.64v-0.72h0.44c1.06,0,1.74-0.14,2.05-0.42c0.31-0.28,0.5-0.64,0.59-1.07
			c0.08-0.44,0.13-1.54,0.13-3.32V88.42c0-1.62-0.05-2.69-0.13-3.2c-0.09-0.51-0.29-0.87-0.61-1.07c-0.32-0.2-0.99-0.31-2.02-0.31
			v-0.72h15.22l0.5,5.31h-0.74c-0.33-1.49-0.75-2.54-1.23-3.16c-0.49-0.62-1.07-1.01-1.74-1.18c-0.67-0.16-1.75-0.24-3.23-0.24
			h-2.95v8.94h2.26c1.04,0,1.76-0.09,2.17-0.27c0.41-0.18,0.68-0.45,0.82-0.81c0.13-0.36,0.2-1.07,0.2-2.11h0.74v7.29h-0.74
			c0-1.18-0.1-1.98-0.3-2.38c-0.2-0.4-0.49-0.66-0.87-0.79c-0.38-0.12-1.03-0.18-1.94-0.18h-2.34v5.04c0,2.52,0.16,4.01,0.49,4.45
			s1.2,0.67,2.62,0.67h1.59c1.12,0,2.04-0.14,2.76-0.43c0.72-0.29,1.41-0.88,2.07-1.77C151.58,100.59,152.1,99.35,152.47,97.78z"/>
		<path class="st0" d="M157.13,104.82v-4.22h0.61c0.71,2.44,1.98,3.66,3.82,3.66c0.8,0,1.39-0.24,1.78-0.72
			c0.39-0.48,0.59-1.01,0.59-1.59c0-0.67-0.21-1.22-0.63-1.65c-0.43-0.43-1.26-0.95-2.5-1.56c-1.3-0.64-2.23-1.27-2.8-1.88
			c-0.56-0.61-0.85-1.36-0.85-2.25c0-0.85,0.3-1.66,0.91-2.43c0.61-0.77,1.46-1.15,2.56-1.15c1.12,0,2.05,0.46,2.78,1.37
			c0.16-0.16,0.36-0.54,0.61-1.15h0.58v3.97h-0.58c-0.21-0.95-0.62-1.77-1.22-2.46c-0.6-0.69-1.31-1.03-2.13-1.03
			c-0.63,0-1.14,0.19-1.52,0.58c-0.39,0.39-0.58,0.84-0.58,1.35c0,0.57,0.21,1.05,0.64,1.46c0.42,0.42,1.22,0.9,2.4,1.43
			c1.78,0.81,2.87,1.59,3.27,2.36c0.4,0.77,0.6,1.52,0.6,2.23c0,1.12-0.37,2.03-1.11,2.73c-0.74,0.7-1.67,1.05-2.79,1.05
			c-1.18,0-2.24-0.49-3.16-1.46c-0.28,0.31-0.51,0.76-0.69,1.35H157.13z"/>
		<path class="st0" d="M169.46,104.82v-4.22h0.61c0.71,2.44,1.98,3.66,3.82,3.66c0.8,0,1.39-0.24,1.78-0.72
			c0.39-0.48,0.59-1.01,0.59-1.59c0-0.67-0.21-1.22-0.63-1.65c-0.43-0.43-1.26-0.95-2.5-1.56c-1.3-0.64-2.23-1.27-2.8-1.88
			c-0.56-0.61-0.85-1.36-0.85-2.25c0-0.85,0.3-1.66,0.91-2.43c0.61-0.77,1.46-1.15,2.56-1.15c1.12,0,2.05,0.46,2.78,1.37
			c0.16-0.16,0.36-0.54,0.61-1.15h0.58v3.97h-0.58c-0.21-0.95-0.62-1.77-1.22-2.46c-0.6-0.69-1.31-1.03-2.13-1.03
			c-0.63,0-1.14,0.19-1.52,0.58c-0.39,0.39-0.58,0.84-0.58,1.35c0,0.57,0.21,1.05,0.64,1.46c0.42,0.42,1.22,0.9,2.4,1.43
			c1.78,0.81,2.87,1.59,3.27,2.36c0.4,0.77,0.6,1.52,0.6,2.23c0,1.12-0.37,2.03-1.11,2.73c-0.74,0.7-1.67,1.05-2.79,1.05
			c-1.18,0-2.24-0.49-3.16-1.46c-0.28,0.31-0.51,0.76-0.69,1.35H169.46z"/>
		<path class="st0" d="M193.34,95.9h-8.97c-0.04,0.62-0.06,1.08-0.06,1.38c0,2.26,0.35,3.96,1.06,5.1c0.71,1.14,1.76,1.7,3.17,1.7
			c1.91,0,3.26-0.85,4.05-2.56h0.75c-0.33,1.07-1,1.9-1.99,2.5c-0.99,0.6-2.08,0.9-3.25,0.9c-1.09,0-2.12-0.27-3.09-0.82
			c-0.97-0.55-1.76-1.33-2.38-2.33c-0.62-1.01-0.93-2.22-0.93-3.66c0-2.03,0.6-3.72,1.79-5.06s2.69-2.02,4.48-2.02
			c1.69,0,2.99,0.51,3.91,1.54C192.8,93.6,193.28,94.71,193.34,95.9z M190.59,95.27c0.03-0.24,0.05-0.46,0.05-0.64
			c0-0.92-0.27-1.64-0.81-2.14c-0.54-0.51-1.2-0.76-1.99-0.76c-1.91,0-3.04,1.18-3.41,3.55H190.59z"/>
		<path class="st0" d="M200.6,91.03h0.42c0.24,0.65,0.38,1.53,0.41,2.65c0.75-0.89,1.55-1.56,2.37-1.99
			c0.83-0.44,1.69-0.66,2.59-0.66c1.03,0,1.86,0.21,2.52,0.64c0.65,0.43,1.07,0.96,1.26,1.58c0.19,0.62,0.28,1.53,0.28,2.72V100
			c0,1.49,0.03,2.39,0.08,2.72c0.05,0.32,0.22,0.57,0.5,0.73c0.28,0.16,0.79,0.24,1.53,0.24v0.72h-6.58v-0.72h0.3
			c0.75,0,1.25-0.11,1.48-0.33c0.23-0.22,0.36-0.48,0.39-0.77c0.03-0.29,0.05-1.16,0.05-2.59v-4.15c0-1.02-0.05-1.74-0.15-2.17
			c-0.1-0.43-0.37-0.82-0.8-1.15c-0.43-0.33-0.99-0.5-1.66-0.5c-0.77,0-1.49,0.23-2.19,0.68c-0.7,0.46-1.35,1.14-1.97,2.05V100
			c0,1.49,0.03,2.39,0.09,2.72c0.06,0.32,0.22,0.57,0.5,0.73c0.28,0.16,0.79,0.24,1.55,0.24v0.72h-6.5v-0.72
			c0.72,0,1.22-0.07,1.51-0.22s0.46-0.37,0.53-0.67c0.07-0.3,0.1-1.23,0.1-2.8v-3.83c0-1.5-0.03-2.41-0.09-2.72
			c-0.06-0.32-0.22-0.56-0.5-0.72s-0.79-0.24-1.55-0.24v-0.72C198.22,91.63,199.39,91.39,200.6,91.03z"/>
		<path class="st0" d="M227.16,101.27h0.69c-0.71,2.44-2.49,3.66-5.34,3.66c-1.83,0-3.37-0.62-4.62-1.87
			c-1.25-1.25-1.88-2.89-1.88-4.95c0-2.1,0.68-3.81,2.03-5.12c1.35-1.31,2.95-1.96,4.79-1.96c1.11,0,2.13,0.24,3.06,0.73
			c0.93,0.49,1.4,1.08,1.4,1.78c0,0.26-0.09,0.51-0.26,0.74c-0.17,0.23-0.42,0.35-0.75,0.35c-0.69,0-1.12-0.4-1.27-1.21
			c-0.13-0.61-0.32-1.03-0.58-1.27c-0.27-0.24-0.8-0.36-1.59-0.36c-1.4,0-2.46,0.49-3.17,1.46c-0.71,0.97-1.06,2.44-1.06,4.4
			c0,2.02,0.38,3.6,1.14,4.74c0.76,1.14,1.91,1.71,3.45,1.71C225.27,104.1,226.59,103.15,227.16,101.27z"/>
		<path class="st0" d="M243.06,95.9h-8.97c-0.04,0.62-0.06,1.08-0.06,1.38c0,2.26,0.35,3.96,1.06,5.1c0.71,1.14,1.76,1.7,3.17,1.7
			c1.91,0,3.26-0.85,4.05-2.56h0.75c-0.33,1.07-1,1.9-1.99,2.5c-0.99,0.6-2.08,0.9-3.25,0.9c-1.09,0-2.12-0.27-3.09-0.82
			c-0.97-0.55-1.76-1.33-2.38-2.33c-0.62-1.01-0.93-2.22-0.93-3.66c0-2.03,0.6-3.72,1.79-5.06s2.69-2.02,4.48-2.02
			c1.69,0,2.99,0.51,3.91,1.54C242.52,93.6,243.01,94.71,243.06,95.9z M240.31,95.27c0.03-0.24,0.05-0.46,0.05-0.64
			c0-0.92-0.27-1.64-0.81-2.14c-0.54-0.51-1.2-0.76-1.99-0.76c-1.91,0-3.04,1.18-3.41,3.55H240.31z"/>
		<path class="st0" d="M269.42,96.56h-8.09l-0.55,1.35c-0.82,1.96-1.22,3.24-1.22,3.83c0,0.64,0.22,1.12,0.65,1.45
			c0.43,0.33,0.99,0.5,1.67,0.5v0.72h-6.33v-0.72c0.94-0.15,1.64-0.48,2.1-1c0.46-0.52,1.02-1.61,1.67-3.27
			c0.05-0.16,0.3-0.76,0.75-1.82l6.19-14.78h0.61l7.11,16.91l0.97,2.23c0.22,0.5,0.51,0.9,0.89,1.19c0.37,0.29,0.93,0.47,1.67,0.54
			v0.72h-8.37v-0.72c1.03,0,1.72-0.08,2.08-0.23c0.36-0.15,0.54-0.45,0.54-0.9c0-0.23-0.24-0.92-0.72-2.06L269.42,96.56z
			 M269.15,95.85l-3.77-9.08l-3.75,9.08H269.15z"/>
		<path class="st0" d="M287.75,92.27h-3.88v7.77c0,1.19,0.05,2,0.16,2.41c0.11,0.41,0.33,0.75,0.67,1c0.34,0.25,0.7,0.38,1.09,0.38
			c0.75,0,1.41-0.43,1.96-1.29l0.5,0.3c-0.33,0.69-0.8,1.21-1.44,1.56c-0.64,0.35-1.28,0.53-1.92,0.53c-0.75,0-1.42-0.22-1.99-0.67
			c-0.57-0.44-0.93-0.97-1.07-1.56s-0.21-1.64-0.21-3.14v-7.29h-1.87v-0.72c0.86-0.02,1.63-0.38,2.31-1.08
			c0.68-0.7,1.12-1.69,1.3-2.95h0.5v4.04h3.88V92.27z"/>
		<path class="st0" d="M298.74,92.27h-3.88v7.77c0,1.19,0.05,2,0.16,2.41c0.11,0.41,0.33,0.75,0.67,1c0.34,0.25,0.7,0.38,1.09,0.38
			c0.75,0,1.41-0.43,1.96-1.29l0.5,0.3c-0.33,0.69-0.8,1.21-1.44,1.56c-0.64,0.35-1.28,0.53-1.92,0.53c-0.75,0-1.42-0.22-1.99-0.67
			c-0.57-0.44-0.93-0.97-1.07-1.56s-0.21-1.64-0.21-3.14v-7.29h-1.87v-0.72c0.86-0.02,1.63-0.38,2.31-1.08
			c0.68-0.7,1.12-1.69,1.3-2.95h0.5v4.04h3.88V92.27z"/>
		<path class="st0" d="M302.09,97.96c0-1.97,0.66-3.61,1.98-4.94c1.32-1.32,2.94-1.99,4.87-1.99c1.94,0,3.56,0.66,4.88,1.99
			c1.32,1.33,1.98,2.97,1.98,4.93c0,2.17-0.67,3.87-2.01,5.11c-1.34,1.24-2.96,1.86-4.85,1.86c-1.9,0-3.51-0.63-4.84-1.89
			C302.76,101.77,302.09,100.08,302.09,97.96z M304.7,98.03c0,2.28,0.37,3.88,1.12,4.8c0.74,0.92,1.78,1.37,3.13,1.37
			c1.37,0,2.42-0.46,3.15-1.37c0.73-0.92,1.09-2.52,1.09-4.8c0-2.26-0.36-3.87-1.08-4.84c-0.72-0.96-1.77-1.45-3.16-1.45
			c-1.37,0-2.42,0.48-3.15,1.44C305.06,94.15,304.7,95.76,304.7,98.03z"/>
		<path class="st0" d="M323.94,94.31c0.36-0.93,0.93-1.71,1.73-2.34c0.8-0.63,1.58-0.94,2.35-0.94c0.69,0,1.24,0.21,1.63,0.64
			c0.4,0.43,0.6,0.87,0.6,1.32c0,0.3-0.1,0.57-0.31,0.79c-0.2,0.22-0.45,0.33-0.75,0.33c-0.52,0-0.92-0.39-1.19-1.16
			c-0.19-0.52-0.47-0.79-0.85-0.79c-0.45,0-0.99,0.31-1.62,0.92c-0.63,0.61-1.03,1.25-1.21,1.91c-0.18,0.66-0.27,1.56-0.27,2.72V100
			c0,1.37,0.02,2.24,0.06,2.59c0.04,0.36,0.19,0.63,0.45,0.82c0.26,0.19,0.73,0.28,1.4,0.28h0.44v0.72h-6.83v-0.72h0.33
			c0.63,0,1.07-0.09,1.34-0.26c0.27-0.17,0.43-0.42,0.48-0.73c0.05-0.31,0.08-1.21,0.08-2.7v-3.63c0-1.38-0.02-2.25-0.06-2.6
			c-0.04-0.35-0.19-0.62-0.45-0.82c-0.26-0.19-0.73-0.29-1.4-0.29h-0.33v-0.71c0.99-0.12,2.27-0.42,3.86-0.93
			C323.74,91.86,323.91,92.95,323.94,94.31z"/>
		<path class="st0" d="M337.21,91.03h0.42c0.24,0.65,0.38,1.53,0.41,2.65c0.75-0.89,1.55-1.56,2.37-1.99
			c0.83-0.44,1.69-0.66,2.59-0.66c1.03,0,1.86,0.21,2.52,0.64c0.65,0.43,1.07,0.96,1.26,1.58c0.19,0.62,0.28,1.53,0.28,2.72V100
			c0,1.49,0.03,2.39,0.08,2.72c0.05,0.32,0.22,0.57,0.5,0.73c0.28,0.16,0.79,0.24,1.53,0.24v0.72h-6.58v-0.72h0.3
			c0.75,0,1.25-0.11,1.48-0.33c0.23-0.22,0.36-0.48,0.39-0.77c0.03-0.29,0.05-1.16,0.05-2.59v-4.15c0-1.02-0.05-1.74-0.15-2.17
			s-0.37-0.82-0.8-1.15c-0.43-0.33-0.99-0.5-1.66-0.5c-0.77,0-1.49,0.23-2.19,0.68c-0.7,0.46-1.35,1.14-1.97,2.05V100
			c0,1.49,0.03,2.39,0.09,2.72c0.06,0.32,0.22,0.57,0.5,0.73c0.28,0.16,0.79,0.24,1.55,0.24v0.72h-6.5v-0.72
			c0.72,0,1.22-0.07,1.51-0.22c0.28-0.15,0.46-0.37,0.53-0.67c0.07-0.3,0.1-1.23,0.1-2.8v-3.83c0-1.5-0.03-2.41-0.09-2.72
			c-0.06-0.32-0.22-0.56-0.5-0.72s-0.79-0.24-1.55-0.24v-0.72C334.83,91.63,336.01,91.39,337.21,91.03z"/>
		<path class="st0" d="M364.33,95.9h-8.97c-0.04,0.62-0.06,1.08-0.06,1.38c0,2.26,0.35,3.96,1.06,5.1c0.71,1.14,1.76,1.7,3.17,1.7
			c1.91,0,3.26-0.85,4.05-2.56h0.75c-0.33,1.07-1,1.9-1.99,2.5c-0.99,0.6-2.08,0.9-3.25,0.9c-1.09,0-2.12-0.27-3.09-0.82
			c-0.97-0.55-1.76-1.33-2.38-2.33c-0.62-1.01-0.93-2.22-0.93-3.66c0-2.03,0.6-3.72,1.79-5.06s2.69-2.02,4.48-2.02
			c1.69,0,2.99,0.51,3.91,1.54C363.79,93.6,364.27,94.71,364.33,95.9z M361.58,95.27c0.03-0.24,0.05-0.46,0.05-0.64
			c0-0.92-0.27-1.64-0.81-2.14c-0.54-0.51-1.2-0.76-1.99-0.76c-1.91,0-3.04,1.18-3.41,3.55H361.58z"/>
		<path class="st0" d="M374.89,101.98l2.98-7.15c0.43-1.05,0.64-1.63,0.64-1.74c0-0.52-0.58-0.8-1.74-0.82v-0.72h4.52v0.72
			c-0.7,0.03-1.21,0.22-1.54,0.56c-0.33,0.34-0.73,1.09-1.21,2.25l-5.73,13.84c-0.55,1.32-1.03,2.22-1.44,2.69
			c-0.42,0.48-0.88,0.71-1.38,0.71c-0.68,0-1.02-0.31-1.02-0.93c0-0.71,0.55-1.31,1.63-1.81c0.64-0.28,1.07-0.52,1.28-0.72
			c0.21-0.2,0.43-0.56,0.64-1.08l1.22-3.06l-4.84-10.36c-0.43-0.91-0.79-1.49-1.07-1.73c-0.28-0.24-0.76-0.36-1.44-0.36v-0.72h5.9
			v0.72c-1.04,0.03-1.56,0.25-1.56,0.64c0,0.16,0.2,0.67,0.61,1.54L374.89,101.98z"/>
		<path class="st0" d="M406.71,102.06h0.58c-0.09,1.79-0.97,2.69-2.64,2.69c-0.71,0-1.27-0.19-1.69-0.57
			c-0.41-0.38-0.68-0.94-0.81-1.68c-1.05,0.74-2,1.3-2.87,1.68c-0.86,0.38-1.64,0.57-2.32,0.57c-0.87,0-1.62-0.25-2.25-0.75
			c-0.63-0.5-0.94-1.17-0.94-1.99c0-1.08,0.53-2.02,1.58-2.83c1.05-0.81,2.5-1.59,4.36-2.36l2.43-0.99v-0.63
			c0-0.89-0.06-1.53-0.17-1.93c-0.11-0.4-0.41-0.75-0.9-1.07c-0.48-0.31-1.12-0.47-1.9-0.47c-1.57,0-2.44,0.52-2.62,1.57
			c-0.17,1.07-0.61,1.6-1.32,1.6c-0.64,0-0.96-0.3-0.96-0.91c0-0.6,0.42-1.24,1.27-1.92c0.85-0.68,2.17-1.03,3.96-1.03
			c1.33,0,2.36,0.21,3.09,0.63c0.73,0.42,1.22,0.9,1.45,1.43c0.24,0.53,0.35,1.35,0.35,2.45v5.2c0,1.21,0.06,1.99,0.19,2.34
			c0.13,0.35,0.4,0.52,0.82,0.52C406.12,103.59,406.55,103.08,406.71,102.06z M402.16,96.56l-1.71,0.69
			c-2.7,1.1-4.05,2.48-4.05,4.15c0,0.66,0.17,1.19,0.52,1.59c0.35,0.4,0.8,0.6,1.35,0.6c0.49,0,1.06-0.16,1.71-0.49
			c0.65-0.32,1.38-0.81,2.18-1.46V96.56z"/>
		<path class="st0" d="M417.74,92.27h-3.88v7.77c0,1.19,0.05,2,0.16,2.41c0.11,0.41,0.33,0.75,0.67,1c0.34,0.25,0.7,0.38,1.09,0.38
			c0.75,0,1.41-0.43,1.96-1.29l0.5,0.3c-0.33,0.69-0.8,1.21-1.44,1.56c-0.64,0.35-1.28,0.53-1.92,0.53c-0.75,0-1.42-0.22-1.99-0.67
			c-0.57-0.44-0.93-0.97-1.07-1.56s-0.21-1.64-0.21-3.14v-7.29h-1.87v-0.72c0.86-0.02,1.63-0.38,2.31-1.08
			c0.68-0.7,1.12-1.69,1.3-2.95h0.5v4.04h3.88V92.27z"/>
		<path class="st0" d="M434.48,82.82V100c0,1.37,0.02,2.24,0.06,2.59c0.04,0.36,0.19,0.63,0.45,0.82c0.26,0.19,0.73,0.28,1.4,0.28
			h0.38v0.72h-6.88v-0.72h0.44c0.63,0,1.08-0.09,1.34-0.26c0.27-0.17,0.43-0.42,0.48-0.73c0.05-0.31,0.08-1.21,0.08-2.7V87.28
			c0-1.35-0.12-2.2-0.36-2.55c-0.24-0.35-0.83-0.53-1.76-0.53v-0.72c0.64,0,1.39-0.07,2.26-0.22c0.86-0.15,1.46-0.29,1.78-0.44
			H434.48z"/>
		<path class="st0" d="M453.03,102.06h0.58c-0.09,1.79-0.97,2.69-2.64,2.69c-0.71,0-1.27-0.19-1.69-0.57
			c-0.41-0.38-0.68-0.94-0.81-1.68c-1.05,0.74-2,1.3-2.87,1.68c-0.86,0.38-1.64,0.57-2.32,0.57c-0.87,0-1.62-0.25-2.25-0.75
			c-0.63-0.5-0.94-1.17-0.94-1.99c0-1.08,0.53-2.02,1.58-2.83c1.05-0.81,2.5-1.59,4.36-2.36l2.43-0.99v-0.63
			c0-0.89-0.06-1.53-0.17-1.93c-0.11-0.4-0.41-0.75-0.9-1.07c-0.48-0.31-1.12-0.47-1.9-0.47c-1.57,0-2.44,0.52-2.62,1.57
			c-0.17,1.07-0.61,1.6-1.32,1.6c-0.64,0-0.96-0.3-0.96-0.91c0-0.6,0.42-1.24,1.27-1.92c0.85-0.68,2.17-1.03,3.96-1.03
			c1.33,0,2.36,0.21,3.09,0.63c0.73,0.42,1.22,0.9,1.45,1.43c0.24,0.53,0.35,1.35,0.35,2.45v5.2c0,1.21,0.06,1.99,0.19,2.34
			c0.13,0.35,0.4,0.52,0.82,0.52C452.44,103.59,452.87,103.08,453.03,102.06z M448.48,96.56l-1.71,0.69
			c-2.7,1.1-4.05,2.48-4.05,4.15c0,0.66,0.17,1.19,0.52,1.59c0.35,0.4,0.8,0.6,1.35,0.6c0.49,0,1.06-0.16,1.71-0.49
			c0.65-0.32,1.38-0.81,2.18-1.46V96.56z"/>
		<path class="st0" d="M470.68,104.91h-0.71l-3.83-10.21l-3.91,10.21h-0.69l-3.92-10.21c-0.45-1.16-0.79-1.86-1.01-2.09
			c-0.22-0.23-0.66-0.35-1.32-0.35v-0.72h5.87v0.72c-0.66,0-1.11,0.06-1.35,0.18c-0.24,0.12-0.36,0.33-0.36,0.62
			c0,0.21,0.2,0.82,0.61,1.84l2.61,6.89l3.99-10.25h0.61l3.86,10.25l2.83-7.3c0.3-0.77,0.46-1.24,0.46-1.4
			c0-0.51-0.53-0.79-1.59-0.83v-0.72H477v0.72c-0.5,0.01-0.9,0.11-1.19,0.29c-0.29,0.18-0.55,0.59-0.79,1.23l-0.35,0.91
			L470.68,104.91z"/>
	</g>
</g>
</svg>
